<svg width="56" height="56" viewBox="0 0 56 56" fill="none" xmlns="http://www.w3.org/2000/svg">
<g clip-path="url(#clip0_275_1736)">
<path d="M28.7733 18.2071C28.3462 17.7802 27.6536 17.7801 27.2264 18.2071L19.2339 26.1998C17.2503 28.1853 17.2505 31.4145 19.2343 33.3983C21.219 35.383 24.4484 35.383 26.4331 33.3983L26.906 32.9254V37.0196C26.906 37.6236 27.3958 38.1134 27.9998 38.1134C28.6038 38.1134 29.0935 37.6236 29.0935 37.0196V32.9254L29.5665 33.3983C31.5511 35.3829 34.7805 35.3831 36.7653 33.3983C38.7491 31.4145 38.7493 28.1853 36.7653 26.1994L28.7733 18.2071ZM35.2187 31.8514C34.0868 32.9832 32.2452 32.9832 31.1135 31.8514L28.8002 29.5381C28.3666 29.0718 27.6338 29.0711 27.1996 29.5381L24.8863 31.8514C23.7545 32.9832 21.9129 32.9832 20.7812 31.8514C19.6498 30.7202 19.65 28.8783 20.7812 27.7461L27.9999 20.5274L35.2183 27.7459C36.3498 28.8783 36.35 30.7202 35.2187 31.8514Z" fill="#054146"/>
<path d="M28 8.85938C17.4459 8.85938 8.85938 17.4459 8.85938 28C8.85938 38.5541 17.4459 47.1406 28 47.1406C38.5541 47.1406 47.1406 38.5541 47.1406 28C47.1406 17.4459 38.5541 8.85938 28 8.85938ZM28 44.9531C18.652 44.9531 11.0469 37.348 11.0469 28C11.0469 18.652 18.652 11.0469 28 11.0469C37.348 11.0469 44.9531 18.652 44.9531 28C44.9531 37.348 37.348 44.9531 28 44.9531Z" fill="#054146"/>
<path d="M28 0.109375C12.5858 0.109375 0.109375 12.5836 0.109375 28C0.109375 43.4144 12.5835 55.8906 28 55.8906C43.4144 55.8906 55.8906 43.4165 55.8906 28C55.8906 12.5858 43.4165 0.109375 28 0.109375ZM42.0171 6.46603C45.0134 8.42308 47.5778 10.9877 49.5347 13.984C48.6031 14.4169 47.4924 14.2361 46.7473 13.4911L42.509 9.25291C41.7564 8.5003 41.5943 7.38019 42.0171 6.46603ZM33.3216 2.85228C32.9771 3.80319 32.0651 4.48438 30.9969 4.48438H25.0031C23.9349 4.48438 23.0229 3.80319 22.6784 2.85228C26.0984 2.12942 29.7341 2.09398 33.3216 2.85228ZM13.9829 6.46603C14.4057 7.38019 14.2436 8.5003 13.491 9.2528L9.25269 13.4911C8.50872 14.235 7.39823 14.4176 6.46527 13.984C8.4222 10.9876 10.9867 8.42308 13.9829 6.46603ZM2.85228 22.6784C3.80319 23.0229 4.48438 23.9349 4.48438 25.0031V30.9969C4.48438 32.0651 3.80308 32.9771 2.85228 33.3216C2.12942 29.9015 2.09409 26.2659 2.85228 22.6784ZM13.9829 49.534C10.987 47.5771 8.42286 45.013 6.46603 42.0171C7.38019 41.5943 8.5003 41.7565 9.2528 42.509L13.4911 46.7473C14.2436 47.4998 14.4057 48.6199 13.9829 49.534ZM22.6784 53.1477C23.0229 52.1968 23.9348 51.5156 25.0031 51.5156H30.9969C32.0651 51.5156 32.9771 52.1968 33.3216 53.1477C29.8945 53.8721 26.2588 53.9045 22.6784 53.1477ZM42.0171 49.534C41.5943 48.6199 41.7564 47.4998 42.509 46.7472L46.7473 42.5089C47.4997 41.7563 48.6199 41.5941 49.5341 42.017C47.5771 45.013 45.013 47.5771 42.0171 49.534ZM50.656 40.1286C48.899 39.2103 46.6747 39.4879 45.2004 40.9621L40.9621 45.2004C39.488 46.6746 39.2102 48.8989 40.1286 50.656C38.6482 51.4517 37.0813 52.106 35.4459 52.6019C34.8546 50.7072 33.0837 49.3281 30.9969 49.3281H25.0031C22.9163 49.3281 21.1455 50.7072 20.5541 52.6019C18.9187 52.106 17.3518 51.4517 15.8714 50.656C16.7897 48.8989 16.512 46.6746 15.0379 45.2004L10.7996 40.9621C9.32542 39.488 7.10106 39.2103 5.34395 40.1286C4.54825 38.6482 3.89386 37.0813 3.39795 35.4459C5.29277 34.8546 6.67188 33.0837 6.67188 30.9969V25.0031C6.67188 22.9163 5.29277 21.1454 3.39806 20.5541C3.89386 18.9191 4.54792 17.3527 5.34341 15.8725C7.07744 16.7829 9.30442 16.5331 10.7996 15.0379L15.0379 10.7996C16.512 9.32542 16.7898 7.10095 15.8714 5.34395C17.3518 4.54825 18.9187 3.89397 20.5541 3.39806C21.1454 5.29277 22.9163 6.67188 25.0031 6.67188H30.9969C33.0837 6.67188 34.8545 5.29277 35.4459 3.39806C37.0813 3.89397 38.6482 4.54825 40.1286 5.34395C39.2103 7.10106 39.488 9.32542 40.9621 10.7997L45.2004 15.0379C46.6938 16.5314 48.9207 16.784 50.6566 15.8726C51.4521 17.3527 52.1061 18.9193 52.6019 20.5542C50.7072 21.1454 49.3281 22.9163 49.3281 25.0031V30.9969C49.3281 33.0837 50.7072 34.8545 52.6019 35.4459C52.106 37.0813 51.4517 38.6482 50.656 40.1286ZM51.5156 30.9969V25.0031C51.5156 23.9349 52.1968 23.0229 53.1477 22.6784C53.8706 26.0985 53.906 29.7341 53.1477 33.3216C52.1969 32.9771 51.5156 32.0652 51.5156 30.9969Z" fill="#054146"/>
</g>
<defs>
<clipPath id="clip0_275_1736">
<rect width="56" height="56" fill="white"/>
</clipPath>
</defs>
</svg>
